<svg width="1024" height="1024" viewBox="0 0 1024 1024" fill="none" xmlns="http://www.w3.org/2000/svg">
<path d="M0.000976562 0.000976562V373.001C0.000976562 358.761 0.00105469 344.521 0.0810547 330.271C0.151054 318.271 0.29036 306.281 0.610352 294.291C1.32035 268.161 2.86098 241.8 7.50098 215.95C12.211 189.73 19.9004 165.331 32.0303 141.511C43.9503 118.101 59.5206 96.6706 78.1006 78.1006C96.6806 59.5306 118.101 43.9503 141.511 32.0303C165.331 19.9104 189.73 12.211 215.95 7.50098C241.79 2.85098 268.151 1.32035 294.291 0.610352C306.281 0.28036 318.281 0.151054 330.271 0.0810547C337.39 0.0360548 344.511 0.015586 351.632 0.00683594L373.001 0.000976562H0.000976562ZM651.001 0.000976562C665.241 0.000976563 679.481 0.00105635 693.73 0.0810547C705.73 0.151055 717.721 0.290352 729.711 0.610352C755.841 1.32035 782.201 2.86099 808.051 7.50098C834.271 12.2109 858.67 19.9004 882.49 32.0303C905.9 43.9502 927.33 59.5207 945.9 78.1006C964.47 96.6806 980.051 118.101 991.971 141.511C1004.09 165.331 1011.79 189.73 1016.5 215.95C1021.15 241.79 1022.68 268.151 1023.39 294.291C1023.72 306.281 1023.85 318.281 1023.92 330.271C1024 343.494 1024 356.717 1024 369.948V656.341C1024 668.801 1023.99 681.262 1023.92 693.73C1023.85 705.73 1023.71 717.721 1023.39 729.711C1022.68 755.841 1021.14 782.201 1016.5 808.051C1011.79 834.271 1004.1 858.67 991.971 882.49C980.051 905.9 964.48 927.33 945.9 945.9C927.32 964.47 905.9 980.051 882.49 991.971C858.67 1004.09 834.271 1011.79 808.051 1016.5C782.211 1021.15 755.851 1022.68 729.711 1023.39C717.721 1023.72 705.72 1023.85 693.73 1023.92C680.508 1024 667.285 1024 654.054 1024H367.661C355.201 1024 342.739 1023.99 330.271 1023.92C318.271 1023.85 306.281 1023.71 294.291 1023.39C268.161 1022.68 241.8 1021.14 215.95 1016.5C189.73 1011.79 165.331 1004.1 141.511 991.971C118.101 980.051 96.6706 964.48 78.1006 945.9C59.5307 927.32 43.9502 905.9 32.0303 882.49C19.9104 858.67 12.2109 834.271 7.50098 808.051C2.85099 782.211 1.32035 755.851 0.610352 729.711C0.280352 717.721 0.151055 705.72 0.0810547 693.73C-0.00894336 679.491 0.000976428 665.251 0.000976562 651.001V1024H0V0H1024V0.000976562H651.001Z" fill="white" style="fill:white;fill-opacity:1;"/>
<path d="M511.306 140C612.459 140 707.435 210.257 707.435 355.404V392.001C751.689 398.518 775 428.831 775 482.153V748.124C775 809.118 744.884 840 688.13 840H334.868C278.115 840 248 809.118 248 748.124V482.153C248 428.831 271.311 398.518 315.565 392.001V355.404C315.565 210.258 410.54 140 511.306 140ZM556.004 568.344C551.237 568.344 547.794 571.787 546.997 576.819C537.991 648.588 535.343 650.972 461.959 661.3C457.456 661.83 454.011 665.273 454.011 670.305C454.011 675.072 457.456 678.25 461.959 679.044C535.343 693.08 537.727 693.08 546.997 763.79C547.794 768.558 551.237 772 556.004 772C561.04 772 564.481 768.558 565.014 763.261C573.756 692.551 577.197 690.697 648.991 679.044C654.555 678.25 658 675.337 658 670.305C658 665.273 654.555 662.095 650.052 661.3C577.73 647.529 573.756 647.794 565.014 577.083C564.481 571.787 561.04 568.344 556.004 568.344ZM429.376 464C426.196 464 424.341 465.854 423.812 468.767C414.541 512.464 416.127 513.524 370.034 522.793C366.854 523.323 365 525.177 365 528.355C365 531.533 366.854 533.387 370.034 533.916C416.127 543.186 415.599 543.715 423.812 587.942C424.341 590.855 426.196 592.709 429.376 592.709C432.553 592.709 434.144 590.855 434.673 587.942C442.886 543.715 442.621 542.656 488.717 533.916C491.63 533.387 493.749 531.533 493.749 528.355C493.749 525.177 491.63 523.323 488.717 522.793C442.621 513.524 444.212 512.464 434.673 468.767C434.144 465.854 432.553 464 429.376 464ZM511.306 198.29C439.11 198.29 376.951 249.632 376.951 347.297V390.664H646.434V347.297C646.434 249.632 583.503 198.29 511.306 198.29Z" fill="#39C5BB" style="fill:#39C5BB;fill:color(display-p3 0.2235 0.7725 0.7333);fill-opacity:1;"/>
</svg>
