<svg width="1280" height="1280" viewBox="0 0 1280 1280" fill="none" xmlns="http://www.w3.org/2000/svg">
<g filter="url(#filter0_d_25_11)">
<path d="M128.001 124.001V497.001C128.001 482.761 128.001 468.521 128.081 454.271C128.151 442.271 128.29 430.281 128.61 418.291C129.32 392.161 130.861 365.8 135.501 339.95C140.211 313.73 147.9 289.331 160.03 265.511C171.95 242.101 187.521 220.671 206.101 202.101C224.681 183.531 246.101 167.95 269.511 156.03C293.331 143.91 317.73 136.211 343.95 131.501C369.79 126.851 396.151 125.32 422.291 124.61C434.281 124.28 446.281 124.151 458.271 124.081C465.39 124.036 472.511 124.016 479.632 124.007L501.001 124.001H128.001ZM779.001 124.001C793.241 124.001 807.481 124.001 821.73 124.081C833.73 124.151 845.721 124.29 857.711 124.61C883.841 125.32 910.201 126.861 936.051 131.501C962.271 136.211 986.67 143.9 1010.49 156.03C1033.9 167.95 1055.33 183.521 1073.9 202.101C1092.47 220.681 1108.05 242.101 1119.97 265.511C1132.09 289.331 1139.79 313.73 1144.5 339.95C1149.15 365.79 1150.68 392.151 1151.39 418.291C1151.72 430.281 1151.85 442.281 1151.92 454.271C1152 467.494 1152 480.717 1152 493.948V780.341C1152 792.801 1151.99 805.262 1151.92 817.73C1151.85 829.73 1151.71 841.721 1151.39 853.711C1150.68 879.841 1149.14 906.201 1144.5 932.051C1139.79 958.271 1132.1 982.67 1119.97 1006.49C1108.05 1029.9 1092.48 1051.33 1073.9 1069.9C1055.32 1088.47 1033.9 1104.05 1010.49 1115.97C986.67 1128.09 962.271 1135.79 936.051 1140.5C910.211 1145.15 883.851 1146.68 857.711 1147.39C845.721 1147.72 833.72 1147.85 821.73 1147.92C808.508 1148 795.285 1148 782.054 1148H495.661C483.201 1148 470.739 1147.99 458.271 1147.92C446.271 1147.85 434.281 1147.71 422.291 1147.39C396.161 1146.68 369.8 1145.14 343.95 1140.5C317.73 1135.79 293.331 1128.1 269.511 1115.97C246.101 1104.05 224.671 1088.48 206.101 1069.9C187.531 1051.32 171.95 1029.9 160.03 1006.49C147.91 982.67 140.211 958.271 135.501 932.051C130.851 906.211 129.32 879.851 128.61 853.711C128.28 841.721 128.151 829.72 128.081 817.73C127.991 803.491 128.001 789.251 128.001 775.001V1148H128V124H1152V124.001H779.001Z" fill="white" style="fill:white;fill-opacity:1;"/>
</g>
<path d="M639.306 264C740.459 264 835.435 334.257 835.435 479.404V516.001C879.689 522.518 903 552.831 903 606.153V872.124C903 933.118 872.884 964 816.13 964H462.868C406.115 964 376 933.118 376 872.124V606.153C376 552.831 399.311 522.518 443.565 516.001V479.404C443.565 334.258 538.54 264 639.306 264ZM684.004 692.344C679.237 692.344 675.794 695.787 674.997 700.819C665.991 772.588 663.343 774.972 589.959 785.3C585.456 785.83 582.011 789.273 582.011 794.305C582.011 799.072 585.456 802.25 589.959 803.044C663.343 817.08 665.727 817.08 674.997 887.79C675.794 892.558 679.237 896 684.004 896C689.04 896 692.481 892.558 693.014 887.261C701.756 816.551 705.197 814.697 776.991 803.044C782.555 802.25 786 799.337 786 794.305C786 789.273 782.555 786.095 778.052 785.3C705.73 771.529 701.756 771.794 693.014 701.083C692.481 695.787 689.04 692.344 684.004 692.344ZM557.376 588C554.196 588 552.341 589.854 551.812 592.767C542.541 636.464 544.127 637.524 498.034 646.793C494.854 647.323 493 649.177 493 652.355C493 655.533 494.854 657.387 498.034 657.916C544.127 667.186 543.599 667.715 551.812 711.942C552.341 714.855 554.196 716.709 557.376 716.709C560.553 716.709 562.144 714.855 562.673 711.942C570.886 667.715 570.621 666.656 616.717 657.916C619.63 657.387 621.749 655.533 621.749 652.355C621.749 649.177 619.63 647.323 616.717 646.793C570.621 637.524 572.212 636.464 562.673 592.767C562.144 589.854 560.553 588 557.376 588ZM639.306 322.29C567.11 322.29 504.951 373.632 504.951 471.297V514.664H774.434V471.297C774.434 373.632 711.503 322.29 639.306 322.29Z" fill="#39C5BB" style="fill:#39C5BB;fill:color(display-p3 0.2235 0.7725 0.7333);fill-opacity:1;"/>
<defs>
<filter id="filter0_d_25_11" x="-3.37593e-06" y="0" width="1280" height="1280" filterUnits="userSpaceOnUse" color-interpolation-filters="sRGB">
<feFlood flood-opacity="0" result="BackgroundImageFix"/>
<feColorMatrix in="SourceAlpha" type="matrix" values="0 0 0 0 0 0 0 0 0 0 0 0 0 0 0 0 0 0 127 0" result="hardAlpha"/>
<feOffset dy="4"/>
<feGaussianBlur stdDeviation="64"/>
<feComposite in2="hardAlpha" operator="out"/>
<feColorMatrix type="matrix" values="0 0 0 0 0 0 0 0 0 0 0 0 0 0 0 0 0 0 0.08 0"/>
<feBlend mode="normal" in2="BackgroundImageFix" result="effect1_dropShadow_25_11"/>
<feBlend mode="normal" in="SourceGraphic" in2="effect1_dropShadow_25_11" result="shape"/>
</filter>
</defs>
</svg>
