<svg width="1024" height="1024" viewBox="0 0 1024 1024" fill="none" xmlns="http://www.w3.org/2000/svg">
<path d="M511.306 140C612.459 140 707.434 210.257 707.435 355.403V392.001C751.689 398.518 775 428.831 775 482.152V748.124C775 809.118 744.884 840 688.13 840H334.868C278.115 840 248 809.118 248 748.124V482.152C248 428.831 271.311 398.518 315.564 392.001V355.403C315.565 210.257 410.539 140 511.306 140ZM556.004 568.344C551.236 568.344 547.794 571.787 546.997 576.818C537.991 648.588 535.342 650.971 461.959 661.3C457.456 661.83 454.011 665.273 454.011 670.305C454.011 675.071 457.456 678.249 461.959 679.044C535.342 693.08 537.726 693.08 546.997 763.79C547.794 768.557 551.236 772 556.004 772C561.039 772 564.481 768.557 565.014 763.261C573.756 692.551 577.197 690.697 648.99 679.044C654.555 678.249 658 675.336 658 670.305C658 665.273 654.555 662.094 650.052 661.3C577.73 647.529 573.756 647.793 565.014 577.083C564.481 571.787 561.039 568.344 556.004 568.344ZM429.376 464C426.195 464 424.341 465.854 423.812 468.767C414.541 512.464 416.127 513.524 370.033 522.793C366.854 523.323 365 525.177 365 528.354C365 531.532 366.854 533.386 370.033 533.916C416.127 543.185 415.599 543.714 423.812 587.941C424.341 590.855 426.195 592.709 429.376 592.709C432.553 592.709 434.144 590.855 434.673 587.941C442.886 543.715 442.621 542.655 488.717 533.916C491.63 533.387 493.749 531.532 493.749 528.354C493.749 525.177 491.63 523.322 488.717 522.793C442.621 513.524 444.212 512.464 434.673 468.767C434.144 465.854 432.553 464 429.376 464ZM511.306 198.29C439.109 198.29 376.951 249.632 376.951 347.297V390.664H646.434V347.297C646.434 249.632 583.503 198.29 511.306 198.29Z" fill="white" fill-opacity="0.85" style="fill:white;fill-opacity:0.85;"/>
</svg>
